{"accessors":[{"bufferView":0,"componentType":5126,"count":46356,"max":[0.9424954056739807,0.9009949564933777,0.8128451108932495],"min":[-0.9474585652351379,-0.900973916053772,-1.18715500831604],"name":"positions","type":"VEC3"},{"bufferView":1,"componentType":5126,"count":46356,"max":[1.0,1.0,1.0],"min":[-1.0,-1.0000001192092896,-1.0],"name":"normals","type":"VEC3"},{"bufferView":2,"componentType":5126,"count":46356,"max":[0.9999759793281555,-0.000553131103515625],"min":[0.002448640065267682,-0.9986660480499268],"name":"texCoords","type":"VEC2"},{"bufferView":3,"componentType":5125,"count":46356,"max":[46355],"min":[0],"name":"indices","type":"SCALAR"}],"asset":{"extras":null,"version":"2.0"},"bufferViews":[{"buffer":0,"byteLength":556272,"name":"positions","target":34962},{"buffer":0,"byteLength":556272,"byteOffset":556272,"name":"normals","target":34962},{"buffer":0,"byteLength":370848,"byteOffset":1112544,"name":"texCoords","target":34962},{"buffer":0,"byteLength":185424,"byteOffset":1483392,"name":"indices","target":34963}],"buffers":[{"byteLength":1668816,"uri":"5bb4600c-92af-11ef-896f-4c77cb9d3ce8.bin"}],"meshes":[{"primitives":[{"attributes":{"NORMAL":1,"POSITION":0,"TEXCOORD_0":2},"indices":3,"mode":4}]}],"nodes":[{"mesh":0,"rotation":[0.0,0.0,0.0,1.0],"scale":[1.0,1.0,1.0],"translation":[0.0,0.0,0.0]}],"scenes":[{"nodes":[0]}]}
