{
	"asset":{
		"generator":"Khronos glTF Blender I/O v3.6.27",
		"version":"2.0"
	},
	"scene":0,
	"scenes":[
		{
			"name":"Scene",
			"nodes":[
				0,
				1,
				2,
				3,
				4
			]
		}
	],
	"nodes":[
		{
			"mesh":0,
			"name":"Cube",
			"scale":[
				10,
				1,
				10
			],
			"translation":[
				0,
				-3,
				0
			]
		},
		{
			"mesh":1,
			"name":"Sphere",
			"translation":[
				0.8250904083251953,
				-1.6409571170806885,
				0.6178560256958008
			]
		},
		{
			"mesh":2,
			"name":"Cube.001",
			"translation":[
				0.8719463348388672,
				-1.1378581523895264,
				5.515359878540039
			]
		},
		{
			"mesh":3,
			"name":"Sphere.001",
			"translation":[
				1.3787181377410889,
				0.07149684429168701,
				4.270233631134033
			]
		},
		{
			"mesh":4,
			"name":"Cube.002",
			"translation":[
				4.846785545349121,
				0.8879228830337524,
				5.692939758300781
			]
		}
	],
	"materials":[
		{
			"doubleSided":true,
			"name":"Material.001",
			"pbrMetallicRoughness":{
				"baseColorFactor":[
					0.800000011920929,
					0.800000011920929,
					0.800000011920929,
					1
				],
				"metallicFactor":0,
				"roughnessFactor":0.5
			}
		}
	],
	"meshes":[
		{
			"name":"Cube.001",
			"primitives":[
				{
					"attributes":{
						"POSITION":0,
						"NORMAL":1,
						"TEXCOORD_0":2,
						"TANGENT":3
					},
					"indices":4,
					"material":0
				}
			]
		},
		{
			"name":"Sphere",
			"primitives":[
				{
					"attributes":{
						"POSITION":5,
						"NORMAL":6,
						"TEXCOORD_0":7,
						"TANGENT":8
					},
					"indices":9
				}
			]
		},
		{
			"name":"Cube.002",
			"primitives":[
				{
					"attributes":{
						"POSITION":10,
						"NORMAL":11,
						"TEXCOORD_0":12,
						"TANGENT":13
					},
					"indices":14
				}
			]
		},
		{
			"name":"Sphere.001",
			"primitives":[
				{
					"attributes":{
						"POSITION":15,
						"NORMAL":16,
						"TEXCOORD_0":17,
						"TANGENT":18
					},
					"indices":9
				}
			]
		},
		{
			"name":"Cube.003",
			"primitives":[
				{
					"attributes":{
						"POSITION":19,
						"NORMAL":20,
						"TEXCOORD_0":21,
						"TANGENT":22
					},
					"indices":14
				}
			]
		}
	],
	"accessors":[
		{
			"bufferView":0,
			"componentType":5126,
			"count":24,
			"max":[
				1,
				1,
				1
			],
			"min":[
				-1,
				-1,
				-1
			],
			"type":"VEC3"
		},
		{
			"bufferView":1,
			"componentType":5126,
			"count":24,
			"type":"VEC3"
		},
		{
			"bufferView":2,
			"componentType":5126,
			"count":24,
			"type":"VEC2"
		},
		{
			"bufferView":3,
			"componentType":5126,
			"count":24,
			"type":"VEC4"
		},
		{
			"bufferView":4,
			"componentType":5123,
			"count":36,
			"type":"SCALAR"
		},
		{
			"bufferView":5,
			"componentType":5126,
			"count":2880,
			"max":[
				0.9999997019767761,
				1,
				0.9999993443489075
			],
			"min":[
				-0.9999990463256836,
				-1,
				-1
			],
			"type":"VEC3"
		},
		{
			"bufferView":6,
			"componentType":5126,
			"count":2880,
			"type":"VEC3"
		},
		{
			"bufferView":7,
			"componentType":5126,
			"count":2880,
			"type":"VEC2"
		},
		{
			"bufferView":8,
			"componentType":5126,
			"count":2880,
			"type":"VEC4"
		},
		{
			"bufferView":9,
			"componentType":5123,
			"count":2880,
			"type":"SCALAR"
		},
		{
			"bufferView":10,
			"componentType":5126,
			"count":24,
			"max":[
				1,
				1,
				1
			],
			"min":[
				-1,
				-1,
				-1
			],
			"type":"VEC3"
		},
		{
			"bufferView":11,
			"componentType":5126,
			"count":24,
			"type":"VEC3"
		},
		{
			"bufferView":12,
			"componentType":5126,
			"count":24,
			"type":"VEC2"
		},
		{
			"bufferView":13,
			"componentType":5126,
			"count":24,
			"type":"VEC4"
		},
		{
			"bufferView":14,
			"componentType":5123,
			"count":36,
			"type":"SCALAR"
		},
		{
			"bufferView":15,
			"componentType":5126,
			"count":2880,
			"max":[
				0.9999997019767761,
				1,
				0.9999993443489075
			],
			"min":[
				-0.9999990463256836,
				-1,
				-1
			],
			"type":"VEC3"
		},
		{
			"bufferView":16,
			"componentType":5126,
			"count":2880,
			"type":"VEC3"
		},
		{
			"bufferView":17,
			"componentType":5126,
			"count":2880,
			"type":"VEC2"
		},
		{
			"bufferView":18,
			"componentType":5126,
			"count":2880,
			"type":"VEC4"
		},
		{
			"bufferView":19,
			"componentType":5126,
			"count":24,
			"max":[
				1,
				1,
				1
			],
			"min":[
				-1,
				-1,
				-1
			],
			"type":"VEC3"
		},
		{
			"bufferView":20,
			"componentType":5126,
			"count":24,
			"type":"VEC3"
		},
		{
			"bufferView":21,
			"componentType":5126,
			"count":24,
			"type":"VEC2"
		},
		{
			"bufferView":22,
			"componentType":5126,
			"count":24,
			"type":"VEC4"
		}
	],
	"bufferViews":[
		{
			"buffer":0,
			"byteLength":288,
			"byteOffset":0,
			"target":34962
		},
		{
			"buffer":0,
			"byteLength":288,
			"byteOffset":288,
			"target":34962
		},
		{
			"buffer":0,
			"byteLength":192,
			"byteOffset":576,
			"target":34962
		},
		{
			"buffer":0,
			"byteLength":384,
			"byteOffset":768,
			"target":34962
		},
		{
			"buffer":0,
			"byteLength":72,
			"byteOffset":1152,
			"target":34963
		},
		{
			"buffer":0,
			"byteLength":34560,
			"byteOffset":1224,
			"target":34962
		},
		{
			"buffer":0,
			"byteLength":34560,
			"byteOffset":35784,
			"target":34962
		},
		{
			"buffer":0,
			"byteLength":23040,
			"byteOffset":70344,
			"target":34962
		},
		{
			"buffer":0,
			"byteLength":46080,
			"byteOffset":93384,
			"target":34962
		},
		{
			"buffer":0,
			"byteLength":5760,
			"byteOffset":139464,
			"target":34963
		},
		{
			"buffer":0,
			"byteLength":288,
			"byteOffset":145224,
			"target":34962
		},
		{
			"buffer":0,
			"byteLength":288,
			"byteOffset":145512,
			"target":34962
		},
		{
			"buffer":0,
			"byteLength":192,
			"byteOffset":145800,
			"target":34962
		},
		{
			"buffer":0,
			"byteLength":384,
			"byteOffset":145992,
			"target":34962
		},
		{
			"buffer":0,
			"byteLength":72,
			"byteOffset":146376,
			"target":34963
		},
		{
			"buffer":0,
			"byteLength":34560,
			"byteOffset":146448,
			"target":34962
		},
		{
			"buffer":0,
			"byteLength":34560,
			"byteOffset":181008,
			"target":34962
		},
		{
			"buffer":0,
			"byteLength":23040,
			"byteOffset":215568,
			"target":34962
		},
		{
			"buffer":0,
			"byteLength":46080,
			"byteOffset":238608,
			"target":34962
		},
		{
			"buffer":0,
			"byteLength":288,
			"byteOffset":284688,
			"target":34962
		},
		{
			"buffer":0,
			"byteLength":288,
			"byteOffset":284976,
			"target":34962
		},
		{
			"buffer":0,
			"byteLength":192,
			"byteOffset":285264,
			"target":34962
		},
		{
			"buffer":0,
			"byteLength":384,
			"byteOffset":285456,
			"target":34962
		}
	],
	"buffers":[
		{
			"byteLength":285840,
			"uri":"shadow_test.bin"
		}
	]
}
