{
	"asset":{
		"generator":"Khronos glTF Blender I/O v4.2.57",
		"version":"2.0"
	},
	"scene":0,
	"scenes":[
		{
			"name":"Scene",
			"nodes":[
				0
			]
		}
	],
	"nodes":[
		{
			"mesh":0,
			"name":"Teapot",
			"rotation":[
				1,
				0,
				0,
				0
			]
		}
	],
	"materials":[
		{
			"doubleSided":true,
			"name":"Material.Duck",
			"pbrMetallicRoughness":{
				"metallicFactor":0,
				"roughnessFactor":0.5
			}
		}
	],
	"meshes":[
		{
			"name":"Teapot",
			"primitives":[
				{
					"attributes":{
						"POSITION":0,
						"NORMAL":1,
						"TEXCOORD_0":2
					},
					"indices":3,
					"material":0
				}
			]
		}
	],
	"accessors":[
		{
			"bufferView":0,
			"componentType":5126,
			"count":3220,
			"max":[
				3.434000015258789,
				3.1500000953674316,
				2
			],
			"min":[
				-3,
				0,
				-2
			],
			"type":"VEC3"
		},
		{
			"bufferView":1,
			"componentType":5126,
			"count":3220,
			"type":"VEC3"
		},
		{
			"bufferView":2,
			"componentType":5126,
			"count":3220,
			"type":"VEC2"
		},
		{
			"bufferView":3,
			"componentType":5123,
			"count":4680,
			"type":"SCALAR"
		}
	],
	"bufferViews":[
		{
			"buffer":0,
			"byteLength":38640,
			"byteOffset":0,
			"target":34962
		},
		{
			"buffer":0,
			"byteLength":38640,
			"byteOffset":38640,
			"target":34962
		},
		{
			"buffer":0,
			"byteLength":25760,
			"byteOffset":77280,
			"target":34962
		},
		{
			"buffer":0,
			"byteLength":9360,
			"byteOffset":103040,
			"target":34963
		}
	],
	"buffers":[
		{
			"byteLength":112400,
			"uri":"teapot.bin"
		}
	]
}
