{
	"asset" : {
		"generator" : "Khronos glTF Blender I/O v4.2.57",
		"version" : "2.0"
	},
	"extensionsUsed" : [ "KHR_lights_punctual" ],
	"extensionsRequired" : [ "KHR_lights_punctual" ],
	"extensions" : {
		"KHR_lights_punctual" : {
			"lights" : [
				{
					"color" : [ 1, 1, 1 ],
					"intensity" : 54351.41306588226,
					"type" : "point",
					"name" : "Light"
				}
			]
		}
	},
	"scene" : 0,
	"scenes" : [
		{
			"name" : "Scene",
			"nodes" : [ 0, 1 ]
		}
	],
	"nodes" : [
		{
			"camera" : 0,
			"name" : "Camera.001",
			"rotation" : [
				0.0,
				0.0,
				0.0,
				1.0
			],
			"translation" : [ 0.0, 0.0, 7.5 ]
		},
		{
			"mesh" : 0,
			"name" : "Cube",
			"rotation" : [ 0, 0, 0, 1 ],
			"translation" : [ 0.0, 0.0, 0.0 ]
		}
	],
	"cameras" : [
		{
			"name" : "Camera.001",
			"perspective" : {
				"aspectRatio" : 1.7777777777777777,
				"yfov" : 0.35774237590036834,
				"zfar" : 1000,
				"znear" : 0.10000000149011612
			},
			"type" : "perspective"
		}
	],
	"materials" : [
		{
			"doubleSided" : true,
			"name" : "Material",
			"pbrMetallicRoughness" : {
				"metallicFactor" : 0,
				"roughnessFactor" : 0.5
			}
		}
	],
	"meshes" : [
		{
			"name" : "Cube",
			"primitives" : [
				{
					"attributes" : {
						"POSITION" : 5,
						"NORMAL" : 6,
						"TEXCOORD_0" : 7,
						"TANGENT" : 8
					},
					"indices" : 4
				}
			]
		}
	],
	"accessors" : [
		{
			"bufferView" : 0,
			"componentType" : 5126,
			"count" : 24,
			"max" : [ 1, 1, 1 ],
			"min" : [ -1, -1, -1 ],
			"type" : "VEC3"
		},
		{
			"bufferView" : 1,
			"componentType" : 5126,
			"count" : 24,
			"type" : "VEC3"
		},
		{
			"bufferView" : 2,
			"componentType" : 5126,
			"count" : 24,
			"type" : "VEC2"
		},
		{
			"bufferView" : 3,
			"componentType" : 5126,
			"count" : 24,
			"type" : "VEC4"
		},
		{
			"bufferView" : 4,
			"componentType" : 5123,
			"count" : 36,
			"type" : "SCALAR"
		},
		{
			"bufferView" : 5,
			"componentType" : 5126,
			"count" : 24,
			"max" : [ 1, 1, 1 ],
			"min" : [ -1, -1, -1 ],
			"type" : "VEC3"
		},
		{
			"bufferView" : 6,
			"componentType" : 5126,
			"count" : 24,
			"type" : "VEC3"
		},
		{
			"bufferView" : 7,
			"componentType" : 5126,
			"count" : 24,
			"type" : "VEC2"
		},
		{
			"bufferView" : 8,
			"componentType" : 5126,
			"count" : 24,
			"type" : "VEC4"
		},
		{
			"bufferView" : 9,
			"componentType" : 5123,
			"count" : 36,
			"type" : "SCALAR"
		},
		{
			"bufferView" : 10,
			"componentType" : 5126,
			"count" : 24,
			"max" : [ 1, 1, 1 ],
			"min" : [ -1, -1, -1 ],
			"type" : "VEC3"
		},
		{
			"bufferView" : 11,
			"componentType" : 5126,
			"count" : 24,
			"type" : "VEC3"
		},
		{
			"bufferView" : 12,
			"componentType" : 5126,
			"count" : 24,
			"type" : "VEC2"
		},
		{
			"bufferView" : 13,
			"componentType" : 5126,
			"count" : 24,
			"type" : "VEC4"
		},
		{
			"bufferView" : 14,
			"componentType" : 5126,
			"count" : 24,
			"max" : [ 1, 1, 1 ],
			"min" : [ -1, -1, -1 ],
			"type" : "VEC3"
		},
		{
			"bufferView" : 15,
			"componentType" : 5126,
			"count" : 24,
			"type" : "VEC3"
		},
		{
			"bufferView" : 16,
			"componentType" : 5126,
			"count" : 24,
			"type" : "VEC2"
		},
		{
			"bufferView" : 17,
			"componentType" : 5126,
			"count" : 24,
			"type" : "VEC4"
		},
		{
			"bufferView" : 18,
			"componentType" : 5126,
			"count" : 24,
			"max" : [ 1, 1, 1 ],
			"min" : [ -1, -1, -1 ],
			"type" : "VEC3"
		},
		{
			"bufferView" : 19,
			"componentType" : 5126,
			"count" : 24,
			"type" : "VEC3"
		},
		{
			"bufferView" : 20,
			"componentType" : 5126,
			"count" : 24,
			"type" : "VEC2"
		},
		{
			"bufferView" : 21,
			"componentType" : 5126,
			"count" : 24,
			"type" : "VEC4"
		},
		{
			"bufferView" : 22,
			"componentType" : 5126,
			"count" : 24,
			"max" : [ 1, 1, 1 ],
			"min" : [ -1, -1, -1 ],
			"type" : "VEC3"
		},
		{
			"bufferView" : 23,
			"componentType" : 5126,
			"count" : 24,
			"type" : "VEC3"
		},
		{
			"bufferView" : 24,
			"componentType" : 5126,
			"count" : 24,
			"type" : "VEC2"
		},
		{
			"bufferView" : 25,
			"componentType" : 5126,
			"count" : 24,
			"type" : "VEC4"
		},
		{
			"bufferView" : 26,
			"componentType" : 5126,
			"count" : 24,
			"max" : [ 1, 1, 1 ],
			"min" : [ -1, -1, -1 ],
			"type" : "VEC3"
		},
		{
			"bufferView" : 27,
			"componentType" : 5126,
			"count" : 24,
			"type" : "VEC3"
		},
		{
			"bufferView" : 28,
			"componentType" : 5126,
			"count" : 24,
			"type" : "VEC2"
		},
		{
			"bufferView" : 29,
			"componentType" : 5126,
			"count" : 24,
			"type" : "VEC4"
		},
		{
			"bufferView" : 30,
			"componentType" : 5126,
			"count" : 24,
			"max" : [ 1, 1, 1 ],
			"min" : [ -1, -1, -1 ],
			"type" : "VEC3"
		},
		{
			"bufferView" : 31,
			"componentType" : 5126,
			"count" : 24,
			"type" : "VEC3"
		},
		{
			"bufferView" : 32,
			"componentType" : 5126,
			"count" : 24,
			"type" : "VEC2"
		},
		{
			"bufferView" : 33,
			"componentType" : 5126,
			"count" : 24,
			"type" : "VEC4"
		},
		{
			"bufferView" : 34,
			"componentType" : 5126,
			"count" : 24,
			"max" : [ 1, 1, 1 ],
			"min" : [ -1, -1, -1 ],
			"type" : "VEC3"
		},
		{
			"bufferView" : 35,
			"componentType" : 5126,
			"count" : 24,
			"type" : "VEC3"
		},
		{
			"bufferView" : 36,
			"componentType" : 5126,
			"count" : 24,
			"type" : "VEC2"
		},
		{
			"bufferView" : 37,
			"componentType" : 5126,
			"count" : 24,
			"type" : "VEC4"
		}
	],
	"bufferViews" : [
		{
			"buffer" : 0,
			"byteLength" : 288,
			"byteOffset" : 0,
			"target" : 34962
		},
		{
			"buffer" : 0,
			"byteLength" : 288,
			"byteOffset" : 288,
			"target" : 34962
		},
		{
			"buffer" : 0,
			"byteLength" : 192,
			"byteOffset" : 576,
			"target" : 34962
		},
		{
			"buffer" : 0,
			"byteLength" : 384,
			"byteOffset" : 768,
			"target" : 34962
		},
		{
			"buffer" : 0,
			"byteLength" : 72,
			"byteOffset" : 1152,
			"target" : 34963
		},
		{
			"buffer" : 0,
			"byteLength" : 288,
			"byteOffset" : 1224,
			"target" : 34962
		},
		{
			"buffer" : 0,
			"byteLength" : 288,
			"byteOffset" : 1512,
			"target" : 34962
		},
		{
			"buffer" : 0,
			"byteLength" : 192,
			"byteOffset" : 1800,
			"target" : 34962
		},
		{
			"buffer" : 0,
			"byteLength" : 384,
			"byteOffset" : 1992,
			"target" : 34962
		},
		{
			"buffer" : 0,
			"byteLength" : 72,
			"byteOffset" : 2376,
			"target" : 34963
		},
		{
			"buffer" : 0,
			"byteLength" : 288,
			"byteOffset" : 2448,
			"target" : 34962
		},
		{
			"buffer" : 0,
			"byteLength" : 288,
			"byteOffset" : 2736,
			"target" : 34962
		},
		{
			"buffer" : 0,
			"byteLength" : 192,
			"byteOffset" : 3024,
			"target" : 34962
		},
		{
			"buffer" : 0,
			"byteLength" : 384,
			"byteOffset" : 3216,
			"target" : 34962
		},
		{
			"buffer" : 0,
			"byteLength" : 288,
			"byteOffset" : 3600,
			"target" : 34962
		},
		{
			"buffer" : 0,
			"byteLength" : 288,
			"byteOffset" : 3888,
			"target" : 34962
		},
		{
			"buffer" : 0,
			"byteLength" : 192,
			"byteOffset" : 4176,
			"target" : 34962
		},
		{
			"buffer" : 0,
			"byteLength" : 384,
			"byteOffset" : 4368,
			"target" : 34962
		},
		{
			"buffer" : 0,
			"byteLength" : 288,
			"byteOffset" : 4752,
			"target" : 34962
		},
		{
			"buffer" : 0,
			"byteLength" : 288,
			"byteOffset" : 5040,
			"target" : 34962
		},
		{
			"buffer" : 0,
			"byteLength" : 192,
			"byteOffset" : 5328,
			"target" : 34962
		},
		{
			"buffer" : 0,
			"byteLength" : 384,
			"byteOffset" : 5520,
			"target" : 34962
		},
		{
			"buffer" : 0,
			"byteLength" : 288,
			"byteOffset" : 5904,
			"target" : 34962
		},
		{
			"buffer" : 0,
			"byteLength" : 288,
			"byteOffset" : 6192,
			"target" : 34962
		},
		{
			"buffer" : 0,
			"byteLength" : 192,
			"byteOffset" : 6480,
			"target" : 34962
		},
		{
			"buffer" : 0,
			"byteLength" : 384,
			"byteOffset" : 6672,
			"target" : 34962
		},
		{
			"buffer" : 0,
			"byteLength" : 288,
			"byteOffset" : 7056,
			"target" : 34962
		},
		{
			"buffer" : 0,
			"byteLength" : 288,
			"byteOffset" : 7344,
			"target" : 34962
		},
		{
			"buffer" : 0,
			"byteLength" : 192,
			"byteOffset" : 7632,
			"target" : 34962
		},
		{
			"buffer" : 0,
			"byteLength" : 384,
			"byteOffset" : 7824,
			"target" : 34962
		},
		{
			"buffer" : 0,
			"byteLength" : 288,
			"byteOffset" : 8208,
			"target" : 34962
		},
		{
			"buffer" : 0,
			"byteLength" : 288,
			"byteOffset" : 8496,
			"target" : 34962
		},
		{
			"buffer" : 0,
			"byteLength" : 192,
			"byteOffset" : 8784,
			"target" : 34962
		},
		{
			"buffer" : 0,
			"byteLength" : 384,
			"byteOffset" : 8976,
			"target" : 34962
		},
		{
			"buffer" : 0,
			"byteLength" : 288,
			"byteOffset" : 9360,
			"target" : 34962
		},
		{
			"buffer" : 0,
			"byteLength" : 288,
			"byteOffset" : 9648,
			"target" : 34962
		},
		{
			"buffer" : 0,
			"byteLength" : 192,
			"byteOffset" : 9936,
			"target" : 34962
		},
		{
			"buffer" : 0,
			"byteLength" : 384,
			"byteOffset" : 10128,
			"target" : 34962
		}
	],
	"buffers" : [
		{
			"byteLength" : 10512,
			"uri" : "demo_scene.bin"
		}
	]
}
